<svg xmlns="http://www.w3.org/2000/svg" xmlns:xlink="http://www.w3.org/1999/xlink" id="Layer_1" x="0px" y="0px" viewBox="0 0 841.89 595.28" style="enable-background:new 0 0 841.89 595.28;" xml:space="preserve"><style type="text/css">	.st0{fill:#E42E2A;}	.st1{fill:#58B947;}</style><g>	<path class="st0" d="M249.93,321.04c-4.08,13.97-11.23,27.29-22,37.08c-10.21,9.29-23.29,15.06-36.81,17.87  c-3.73,0.78-7.52,1.33-11.33,1.65c-4.48,0.38-8.33-3.15-8.26-7.65c0.22-13.97,3.66-27.7,9.86-41.2  c5.07-11.03,18.19-15.88,29.24-10.87c4.42,2,8.8,4.15,13.16,6.43c2.28,1.19,4.87-1,4.05-3.44c-6.49-19.41-22.17-35.36-43.36-41.31  c-21.13-5.94-42.78-0.53-58.43,12.59c-1.98,1.66-0.89,4.9,1.7,5.04c4.77,0.27,9.51,0.68,14.21,1.25  c12.26,1.47,20.92,12.77,19.28,25.01c-2.12,15.75-7.19,30.46-15.73,43.96c-2.02,3.2-6.1,4.46-9.53,2.86  c-0.02-0.01-0.04-0.02-0.06-0.03c-28.72-13.4-45.07-44.05-43.52-75.25c0.04-0.82,0.1-1.64,0.16-2.46  c1.02-12.72,5.82-25.41,14.91-34.37c9.08-8.96,22.74-13.63,35.07-10.39c4.82,1.27,9.27,3.63,13.97,5.29  c9.72,3.41,20.51,3.65,30.37,0.68c6.15-1.86,11.94-4.92,18.24-6.18c16.91-3.39,34.51,7.61,42.35,22.97  C255.33,285.96,254.77,304.49,249.93,321.04z"></path>	<g>		<path class="st1" d="M173.11,249.6c0,0,5.87-5.5,6.88-9.13c0.22-0.07,2.32-3.98-1.38-13.33c-3.98-8.04-5.5-10.5-5.5-10.5   l-6.23,12.02c0,0-3.48,7.75-0.43,12.53C169.06,245.69,173.11,249.6,173.11,249.6z"></path>		<path class="st1" d="M176.99,250.26c0.01-0.12,0.1-0.29,0.26-0.54c1.4-2.11,2.96-3.86,3.97-6.24c0.97-2.28,1.56-4.72,1.72-7.19   c0.02-0.25,0.03-0.49,0.04-0.74c0.01-0.19,0.02-0.39,0.15-0.53c0.1-0.1,0.24-0.15,0.38-0.17c6.13-0.93,12.51-1.41,18.53-1.72   c-2.01,3.77-4.51,7.26-7.18,10.6c-1.54,1.93-3.18,3.83-5.22,5.22c-1.96,1.33-4.28,2.12-6.65,2.32c-1.21,0.1-2.42,0.05-3.62-0.15   c-0.57-0.1-1.15-0.22-1.69-0.41C177.2,250.54,176.98,250.46,176.99,250.26z"></path>		<path class="st1" d="M168.82,250.26c-0.01-0.12-0.1-0.29-0.26-0.54c-1.4-2.11-2.96-3.86-3.97-6.24c-0.97-2.28-1.56-4.72-1.72-7.19   c-0.02-0.25-0.03-0.49-0.04-0.74c-0.01-0.19-0.02-0.39-0.15-0.53c-0.1-0.1-0.24-0.15-0.38-0.17c-6.13-0.93-12.51-1.41-18.53-1.72   c2.01,3.77,4.51,7.26,7.18,10.6c1.54,1.93,3.18,3.83,5.22,5.22c1.96,1.33,4.28,2.12,6.65,2.32c1.21,0.1,2.42,0.05,3.62-0.15   c0.57-0.1,1.15-0.22,1.69-0.41C168.61,250.54,168.83,250.46,168.82,250.26z"></path>	</g>	<g>		<path class="st0" d="M323.52,299.78v78.06h-25.44v-78.06h-29.34l2.6-23.13h78.92l2.6,23.13H323.52z"></path>		<path class="st0" d="M349.26,341.69c0-22.26,15.03-37.58,36.72-37.58c21.97,0,36.71,15.32,36.71,37.58   c0,22.12-14.74,37.58-36.71,37.58C364.14,379.28,349.26,363.81,349.26,341.69z M398.4,341.69c0-9.97-4.91-16.62-12.43-16.62   c-7.52,0-12.43,6.65-12.43,16.62c0,9.83,4.91,16.62,12.43,16.62C393.49,358.32,398.4,351.52,398.4,341.69z"></path>		<path class="st0" d="M454.92,317.55c6.51-8.67,14.6-13.44,23.42-13.44c8.67,0,15.47,5.35,18.5,14.17   c6.51-9.25,14.89-14.17,23.85-14.17c12.14,0,20.38,10.41,20.38,25.73v47.99h-23.56v-43.22c0-5.64-2.17-8.82-5.93-8.82   c-3.9,0-8.53,3.32-12.87,8.82v43.22h-23.56v-43.22c0-5.64-2.17-8.82-5.93-8.82c-3.9,0-8.53,3.32-12.87,8.82v43.22H432.8v-44.66   L429.77,307l23.56-2.17L454.92,317.55z"></path>		<path class="st0" d="M589.55,335.19c0-1.16-0.14-2.02-0.43-3.04c-1.3-4.62-5.35-7.08-11.56-7.08c-5.78,0-12.58,3.18-17.49,7.95   l-7.66-18.07c9.69-7.37,19.66-10.84,30.79-10.84c17.2,0,27.32,8.96,28.77,25.3c0.15,1.3,0.15,2.6,0.15,3.9v18.21   c0,4.05,2.75,6.07,8.38,6.07l-3.18,21.68c-13.73,0-21.97-2.89-25.58-9.25c-6.22,5.64-14.17,9.25-21.54,9.25   c-11.28,0-18.79-6.94-18.79-17.49C551.39,350.51,561.36,343.43,589.55,335.19z M580.15,362.51c3.18,0,6.5-1.59,9.4-4.34v-8.67   c-9.97,2.6-14.31,5.35-14.31,8.67C575.24,361.06,576.83,362.51,580.15,362.51z"></path>		<path class="st0" d="M630.78,325.79h-9.83v-20.24h10.41l1.59-17.63l21.39-2.03v19.66h21.11l-2.17,20.24h-18.94v22.69   c0,6.22,2.6,9.11,7.08,9.11c2.6,0,6.36-0.72,10.26-3.04l8.1,18.65c-6.22,4.05-13.88,6.07-22.12,6.07   c-16.05,0-26.89-8.67-26.89-28.62V325.79z"></path>		<path class="st0" d="M689.94,284.45c0-7.52,6.07-13.59,13.59-13.59c7.66,0,13.73,6.07,13.73,13.59c0,7.52-6.07,13.73-13.73,13.73   C696.01,298.19,689.94,291.97,689.94,284.45z M715.38,377.83h-23.56V307l23.56-2.17V377.83z"></path>		<path class="st0" d="M751.73,377.83h-23.56V275.2l23.56-2.17V377.83z"></path>	</g></g></svg>